<?xml version="1.0" encoding="UTF-8" standalone="no"?>
<!DOCTYPE svg PUBLIC "-//W3C//DTD SVG 1.1//EN" "http://www.w3.org/Graphics/SVG/1.1/DTD/svg11.dtd">
<svg width="100%" height="100%" viewBox="0 0 324 301" version="1.1" xmlns="http://www.w3.org/2000/svg" xmlns:xlink="http://www.w3.org/1999/xlink" xml:space="preserve" xmlns:serif="http://www.serif.com/" style="fill-rule:evenodd;clip-rule:evenodd;stroke-linejoin:round;stroke-miterlimit:2;">
    <g transform="matrix(1,0,0,1,-292.174,-168.063)">
        <path d="M472.453,287.366C460.27,261.395 469.154,224.455 496.323,197.286C528.939,164.67 575.636,158.406 600.537,183.307C625.438,208.208 619.175,254.905 586.559,287.521C559.373,314.707 522.405,323.585 496.432,311.369L343.952,463.85C337.327,470.474 326.586,470.474 319.961,463.85C319.961,463.849 319.961,463.849 319.961,463.849C313.336,457.224 313.336,446.483 319.961,439.858L472.453,287.366Z" style="fill:rgb(239,153,81);"/>
        <path d="M577.35,463.849C583.974,457.224 583.974,446.483 577.35,439.858C546.652,409.16 467.646,330.155 467.646,330.155L443.655,354.146C443.655,354.146 522.66,433.152 553.358,463.85C559.983,470.474 570.724,470.474 577.349,463.85C577.349,463.849 577.349,463.849 577.35,463.849ZM292.21,224.613C292.814,241.955 299.974,258.422 312.244,270.692C334.757,293.248 382.354,340.845 382.354,340.845L430.345,292.854C430.345,292.854 356.171,218.68 326.093,188.602C322.562,185.07 317.608,183.352 312.648,183.938C307.689,184.524 303.271,187.351 300.661,191.608C294.759,201.312 291.812,212.258 292.21,224.613Z" style="fill:rgb(239,153,81);"/>
    </g>
</svg>
